<svg width="1060" height="1142" viewBox="0 0 1060 1142" fill="none" xmlns="http://www.w3.org/2000/svg">
<path d="M527.8 129.7C530.1 129.9 533.9 129.9 536.3 129.7C538.6 129.5 536.7 129.3 532 129.3C527.3 129.3 525.4 129.5 527.8 129.7ZM524.3 1014.7C526.9 1014.9 531.1 1014.9 533.8 1014.7C536.4 1014.5 534.2 1014.4 529 1014.4C523.8 1014.4 521.6 1014.5 524.3 1014.7Z" fill="#007F40" fill-opacity="0.02"/>
<path d="M721.5 844.2L717.5 848.5L721.8 844.5C725.7 840.9 726.5 840 725.7 840C725.5 840 723.6 841.9 721.5 844.2V844.2Z" fill="#00AA55" fill-opacity="0.02"/>
<path d="M273.5 458C273.5 555.1 273.6 594.8 273.7 546.2C273.9 497.7 273.9 418.3 273.7 369.7C273.6 321.2 273.5 360.9 273.5 458V458ZM663.2 640C663.2 641.4 663.4 641.9 663.7 641.2C663.9 640.6 663.9 639.4 663.7 638.7C663.4 638.1 663.2 638.6 663.2 640Z" fill="#009D4E" fill-opacity="0.05"/>
<path d="M334 842.3C334 842.5 335.5 843.9 337.3 845.6L340.5 848.5L337.6 845.2C334.8 842.2 334 841.5 334 842.3Z" fill="#00AA55" fill-opacity="0.06"/>
<path d="M1059.3 563C1059.3 566 1059.5 567.3 1059.7 565.7C1059.9 564.2 1059.9 561.8 1059.7 560.2C1059.5 558.7 1059.3 560 1059.3 563ZM1059.3 582.5C1059.3 585.8 1059.5 587 1059.7 585.2C1059.9 583.4 1059.9 580.7 1059.7 579.2C1059.5 577.7 1059.3 579.2 1059.3 582.5ZM274.5 915C277.2 917.7 279.6 920 279.9 920C280.2 920 278.2 917.7 275.5 915C272.8 912.2 270.4 910 270.1 910C269.8 910 271.8 912.2 274.5 915ZM159.5 996C160.5 997.1 161.5 998 161.8 998C162.1 998 161.5 997.1 160.5 996C159.5 994.9 158.5 994 158.2 994C157.9 994 158.5 994.9 159.5 996ZM169.5 1006C170.5 1007.1 171.5 1008 171.8 1008C172.1 1008 171.5 1007.1 170.5 1006C169.5 1004.9 168.5 1004 168.2 1004C167.9 1004 168.5 1004.9 169.5 1006Z" fill="#00A64D" fill-opacity="0.08"/>
<path d="M785.4 914.2L783.5 916.5L785.8 914.6C787 913.5 788 912.5 788 912.3C788 911.5 787.2 912.1 785.4 914.2Z" fill="#00A74F" fill-opacity="0.11"/>
<path d="M895.5 142C897.6 144.2 899.6 146 899.9 146C900.2 146 898.6 144.2 896.5 142C894.4 139.8 892.4 138 892.1 138C891.8 138 893.4 139.8 895.5 142Z" fill="#00A24D" fill-opacity="0.13"/>
<path d="M904.1 550.6C904.1 551.7 904.4 552 904.7 551.2C905 550.5 904.9 549.6 904.6 549.3C904.3 548.9 904 549.5 904.1 550.6ZM395.3 635.5C395.3 638.2 395.5 639.3 395.7 637.7C395.9 636.2 395.9 634 395.7 632.7C395.5 631.5 395.3 632.7 395.3 635.5Z" fill="#00A34E" fill-opacity="0.14"/>
<path d="M785.5 457C785.5 553.5 785.6 593 785.7 544.8C785.9 496.5 785.9 417.5 785.7 369.3C785.6 321 785.5 360.5 785.5 457V457ZM468.5 580C468.5 695.8 468.6 743.1 468.7 685.2C468.9 627.4 468.9 532.6 468.7 474.7C468.6 416.9 468.5 464.2 468.5 580ZM468 935.8L468.5 966.5L468.8 936.6C468.9 920.1 468.7 906.3 468.3 905.9C467.8 905.4 467.7 918.9 468 935.8Z" fill="#00A550" fill-opacity="0.19"/>
<path d="M0.0999375 566.6C0.0999375 567.7 0.399936 568 0.699936 567.2C0.999936 566.5 0.899938 565.6 0.599937 565.3C0.299937 564.9 -6.24917e-05 565.5 0.0999375 566.6Z" fill="#00A74E" fill-opacity="0.2"/>
<path d="M0.400024 583.5C0.400024 590.6 0.50002 593.4 0.70002 589.7C0.90002 586 0.90002 580.1 0.70002 576.7C0.50002 573.3 0.400024 576.3 0.400024 583.5ZM153.4 587C153.4 594.4 153.5 597.5 153.7 593.7C153.9 590 153.9 584 153.7 580.2C153.5 576.5 153.4 579.6 153.4 587Z" fill="#00A44D" fill-opacity="0.22"/>
<path d="M157.4 146.2L155.5 148.5L157.8 146.6C159 145.5 160 144.5 160 144.3C160 143.5 159.2 144.1 157.4 146.2Z" fill="#00A44E" fill-opacity="0.23"/>
<path d="M1058.3 563C1058.3 566 1058.5 567.3 1058.7 565.7C1058.9 564.2 1058.9 561.8 1058.7 560.2C1058.5 558.7 1058.3 560 1058.3 563ZM1058.3 582.5C1058.3 585.2 1058.5 586.3 1058.7 584.7C1058.9 583.2 1058.9 581 1058.7 579.7C1058.5 578.5 1058.3 579.7 1058.3 582.5ZM274.1 646.6C274.1 647.7 274.4 648 274.7 647.2C275 646.5 274.9 645.6 274.6 645.3C274.3 644.9 274 645.5 274.1 646.6Z" fill="#00A651" fill-opacity="0.24"/>
<path d="M524.8 0.700026C527.6 0.900026 532.4 0.900026 535.3 0.700026C538.1 0.500026 535.8 0.400024 530 0.400024C524.2 0.400024 521.9 0.500026 524.8 0.700026ZM524.8 1141.7C527.6 1141.9 532.4 1141.9 535.3 1141.7C538.1 1141.5 535.8 1141.4 530 1141.4C524.2 1141.4 521.9 1141.5 524.8 1141.7Z" fill="#00A350" fill-opacity="0.25"/>
<path d="M719.9 843.7L717.5 846.5L720.3 844.1C721.8 842.7 723 841.5 723 841.3C723 840.5 722.2 841.2 719.9 843.7Z" fill="#00A74F" fill-opacity="0.23"/>
<path d="M163.4 140.2L161.5 142.5L163.8 140.6C165 139.5 166 138.5 166 138.3C166 137.5 165.2 138.1 163.4 140.2Z" fill="#00A452" fill-opacity="0.21"/>
<path d="M903.4 992.2L901.5 994.5L903.8 992.6C905.9 990.8 906.5 990 905.7 990C905.5 990 904.5 991 903.4 992.2ZM895.9 999.7C894.6 1001.3 894.7 1001.4 896.3 1000.1C897.9 998.8 898.4 998 897.6 998C897.4 998 896.6 998.8 895.9 999.7V999.7Z" fill="#00A44F" fill-opacity="0.16"/>
<path d="M395.5 455C395.5 550.4 395.6 589.5 395.7 541.7C395.9 494 395.9 416 395.7 368.2C395.6 320.5 395.5 359.6 395.5 455V455Z" fill="#00A750" fill-opacity="0.13"/>
<path d="M162.4 139.2L159.5 142.5L162.8 139.6C165.8 136.8 166.5 136 165.7 136C165.5 136 164.1 137.5 162.4 139.2ZM151.4 150.2L149.5 152.5L151.8 150.6C153.9 148.8 154.5 148 153.7 148C153.5 148 152.5 149 151.4 150.2ZM779.5 226C780.5 227.1 781.5 228 781.8 228C782.1 228 781.5 227.1 780.5 226C779.5 224.9 778.5 224 778.2 224C777.9 224 778.5 224.9 779.5 226ZM272.5 458C272.5 555.1 272.6 594.8 272.7 546.2C272.9 497.7 272.9 418.3 272.7 369.7C272.6 321.2 272.5 360.9 272.5 458V458ZM662.2 639C662.2 640.9 662.4 641.7 662.7 640.7C662.9 639.8 662.9 638.2 662.7 637.2C662.4 636.3 662.2 637.1 662.2 639Z" fill="#00BF40" fill-opacity="0.02"/>
<path d="M779.5 266C780.5 267.1 781.5 268 781.8 268C782.1 268 781.5 267.1 780.5 266C779.5 264.9 778.5 264 778.2 264C777.9 264 778.5 264.9 779.5 266ZM473.4 354.2L471.5 356.5L473.8 354.6C475.9 352.8 476.5 352 475.7 352C475.5 352 474.5 353 473.4 354.2ZM473.5 982C474.5 983.1 475.5 984 475.8 984C476.1 984 475.5 983.1 474.5 982C473.5 980.9 472.5 980 472.2 980C471.9 980 472.5 980.9 473.5 982ZM904.4 993.2L901.5 996.5L904.8 993.6C906.5 991.9 908 990.5 908 990.3C908 989.5 907.2 990.2 904.4 993.2ZM897.4 1000.2L895.5 1002.5L897.8 1000.6C899.9 998.8 900.5 998 899.7 998C899.5 998 898.5 999 897.4 1000.2Z" fill="#007F7F" fill-opacity="0.01"/>
<path d="M273.5 916C275.6 918.2 277.6 920 277.9 920C278.2 920 276.6 918.2 274.5 916C272.4 913.8 270.4 912 270.1 912C269.8 912 271.4 913.8 273.5 916Z" fill="#00A54F" fill-opacity="0.44"/>
<path d="M1057.3 563C1057.3 566 1057.5 567.3 1057.7 565.7C1057.9 564.2 1057.9 561.8 1057.7 560.2C1057.5 558.7 1057.3 560 1057.3 563ZM1057.3 582.5C1057.3 585.2 1057.5 586.3 1057.7 584.7C1057.9 583.2 1057.9 581 1057.7 579.7C1057.5 578.5 1057.3 579.7 1057.3 582.5Z" fill="#00A54E" fill-opacity="0.49"/>
<path d="M488.5 2.1C473.9 3.2 457.1 4.9 448.5 6.1C430.8 8.5 426.2 9.2 422.5 10C420.3 10.5 415.8 11.3 412.5 12C409.2 12.6 404.6 13.5 402.3 14C399.9 14.6 395.9 15.5 393.3 16.1C385.6 17.8 374.6 20.6 370 22C368.6 22.4 365.5 23.3 363 24C357.2 25.7 341.1 30.9 338.5 32C337.4 32.4 334.9 33.3 333 34C329 35.4 326.6 36.3 322.8 37.9C321.2 38.5 319 39.4 317.8 39.9C290.9 50.6 259.5 67.3 234.3 84.1C223.2 91.5 201.4 107.5 199 110C198.7 110.3 196 112.5 193 115C168.6 134.9 133 171.8 116.3 194.5C115.1 196.2 112.6 199.6 110.7 202.2C106.5 207.7 87.7 235.7 85.1 240.3C84.1 242 81 247.4 78.3 252.1C74.1 259.3 56.7 294 54 300.5C53.6 301.6 52.5 304.1 51.7 306C46 319.1 33.8 352.9 30.8 364C30.3 365.9 29.5 369 28.9 370.7C26.7 378.3 26 380.9 24 388.5C22.9 392.9 21.5 398.7 20.9 401.5C20.3 404.2 19.4 408.1 19 410C9.89997 451.1 4.89997 489.9 1.99997 543C-1.00003 597.2 2.59997 655.4 12 706C15.4 724.3 20.8 747.6 24 758C24.4 759.4 25.8 763.9 27 768C31.3 782.5 37.1 799.4 42.1 811.7C42.6 813 43.4 815 43.9 816.2C44.4 817.5 45.7 820.6 46.9 823.2C48.1 825.8 49 828.2 49 828.5C49 829 54 839.7 60.6 853.5C63.9 860.3 70.5 872.8 74.8 880.3C76 882.3 77.8 885.5 78.9 887.3C85.1 898.1 102.7 925.1 106.5 929.8C107.3 930.7 110.9 935.5 114.6 940.5C120.9 949 131.7 962.5 135 966.2C135.8 967.1 139 970.8 142 974.3C149 982.6 184.6 1018 192.5 1024.5C195.8 1027.3 199.4 1030.3 200.5 1031.3C207.4 1037.6 251.4 1069 253.4 1069C253.6 1069 256.8 1070.8 260.5 1073.1C272.3 1080.2 292.1 1090.6 304.5 1096C311.6 1099.1 316.2 1101.1 318.5 1102C321.1 1103 324.9 1104.5 328 1105.8C345.3 1113 380.1 1123.3 402.5 1127.9C405.8 1128.6 410.3 1129.5 412.5 1130C416.5 1130.9 423.6 1132.1 434.8 1133.9C466.5 1139.1 502.3 1141.4 540 1140.7C584.9 1139.8 620.4 1136.1 651.5 1129.1C653.7 1128.6 658 1127.7 661 1127C671 1124.8 675.7 1123.6 692.5 1119C700.6 1116.8 729.7 1106.6 730.7 1105.7C731 1105.3 731.9 1105 732.7 1105C733.4 1105 736.2 1104 738.8 1102.9C741.4 1101.7 745.3 1100 747.5 1099C765.7 1091.2 791.7 1078 799.2 1072.8C800.6 1071.8 802.1 1071 802.4 1071C803.7 1071 836.7 1049.1 842 1044.7C842.9 1044.1 847.4 1040.6 852 1037C856.7 1033.5 860.7 1030.3 861 1030C861.3 1029.7 863.1 1028.2 865 1026.6C877.6 1016.3 907.3 987.7 920 973.5C934.9 957 950.4 936.9 963.7 917C972 904.5 981 890.2 981 889.5C981 889.3 983.2 885.4 985.8 880.8C990.3 872.9 998.2 857.3 1004.8 843C1017.6 815.4 1032.8 769.8 1039.9 738C1040.4 735.5 1041.3 731.5 1041.9 729C1043.5 722.3 1046.6 705.6 1048 697C1048.6 692.9 1049.5 687 1050 684C1051.9 672.3 1054.2 650.8 1056 627.9C1057.4 610.5 1057.4 534.4 1056 517.5C1052.4 473.9 1049.9 454.7 1043.4 422.5C1037.8 394.7 1032.7 375.7 1024.2 350.5C1018.9 334.9 1013.7 320.6 1010.6 313.5C1009.8 311.9 1008.6 308.9 1007.7 307C1003.4 297.1 1001.2 292.3 994.5 279C990.5 271 984.9 260.4 982 255.5C979.1 250.5 975.9 245 974.9 243.3C968.4 231.9 940.4 192.3 933.3 184.5C932.3 183.3 929 179.5 926 176C906.5 152.9 880.3 127.5 857 109C850.7 104 844.8 99.4 844 98.7C824.1 82.7 782.6 58.3 754.5 46C751.8 44.8 747.3 42.8 744.5 41.6C741.8 40.3 736.8 38.3 733.5 37.1C730.2 35.8 726.6 34.4 725.5 33.9C723 32.9 696.6 24.1 692.5 22.9C690.9 22.5 687.7 21.6 685.5 21C683.3 20.4 679.9 19.5 678 19C676.1 18.6 672 17.5 669 16.7C666 15.9 660.8 14.7 657.5 14.1C654.2 13.4 649.7 12.5 647.5 12C643.6 11.2 637.4 10.1 625.3 8C611.5 5.8 593.4 3.8 569 2C553.3 0.799999 504.5 0.899997 488.5 2.1V2.1ZM561.9 128C588.9 130.4 603.3 132.7 626 138.2C638.7 141.3 661.1 148.2 664.2 150C665.2 150.6 666.4 151 667 151C667.6 151 670.2 152 672.8 153.1C675.4 154.3 679.1 155.9 681 156.7C697.8 163.8 725.1 179.2 739.9 189.9C765.5 208.5 789.3 230.4 810.1 254.6C821 267.3 834.6 287 846 306.5C862.4 334.8 879.4 377.8 888.1 413.2C888.6 415.3 889.4 418.7 889.9 420.7C891.7 427.7 892.7 432.8 895.9 449.5C896.8 454.4 898.2 463 900 475.2C900.5 478.7 901.3 486 901.9 491.5C902.5 497 903.5 506.9 904.2 513.5C905.9 529.8 905.9 613.1 904.2 630C898.9 682.4 894.9 705.2 883 748.5C880.1 759.1 869.9 787.3 864.3 800C861.9 805.5 848.2 833.2 846.2 836.5C845.2 838.1 843.1 841.7 841.5 844.5C833.5 858.2 821.1 875.6 807.2 892.7C798.4 903.5 770.8 930.8 760 939.4C755.3 943.1 750.8 946.7 750 947.3C729.8 963.4 697.8 981.2 670 991.9C665.3 993.7 660.6 995.6 659.5 996C658.4 996.5 655.9 997.3 654 997.9C652.1 998.5 647.8 999.8 644.5 1000.9C636.6 1003.4 617.4 1008 607 1009.9C553.4 1019.6 499 1019.4 449 1009.3C444.9 1008.4 440.4 1007.5 439 1007.3C432.7 1006 416.5 1001.5 406 998C341.1 976.6 285.5 936.3 240.2 877.8C235.1 871.1 215 841.6 215 840.7C215 840.4 213.2 837.3 211 833.7C207.2 827.3 191 795 191 793.7C191 793.3 190.1 790.8 188.9 788.2C184.9 779.3 182.9 773.8 177.9 758.6C173.4 744.9 169.2 730.1 166.9 719.5C166.3 716.7 165.4 712.7 164.9 710.5C163.1 702.6 160.3 686.2 158 671C156.9 663.3 155.5 649.2 154 632C152.7 616.1 152.7 554.9 154 536.6C156.3 504.4 157.3 494.5 160.1 474C161.5 463.3 164.5 445.5 166 438.5C166.5 436.3 167.4 431.8 168.1 428.5C169.2 423.2 174.8 400.4 177 392.5C179.3 384.1 184.3 368.4 186 364.5C186.4 363.4 188.7 357.5 191.1 351.5C199 331.1 207.1 314.4 217.8 296.3C223.6 286.5 239.1 263.9 242 261C242.3 260.7 244.5 258 247 255C259.3 239.8 281.6 218 298 205C301.6 202.2 305.4 199.2 306.5 198.2C310.3 195 334.7 179.1 343.1 174.3C372.5 157.4 407.7 144 443 136.1C451.1 134.3 468.3 131.5 480 130.1C503.9 127.1 541.1 126.2 561.9 128V128Z" fill="#009933"/>
<path d="M289.5 262.4C283.9 263.9 277.8 270.3 276.3 276.3C274.6 282.4 274.4 650.2 276 670.5C279.1 710 280.7 721.3 286.2 745C288 753 294.2 772.4 296.5 777.5C297.2 779.1 298.6 782.5 299.6 785C304.3 796.7 315.6 816.4 324.8 828.5C345.7 856 384.1 882 421 893.6C429.2 896.2 431.5 896.8 437 898C440 898.7 443.6 899.6 445 900C446.4 900.5 450.4 901.3 454 902C457.6 902.6 462.4 903.6 464.8 904.2L469 905.3V934.9C469 970.4 469.5 973.5 476 980C482.7 986.7 484.8 987 530.3 987C574.3 987 576.2 986.8 582.5 980.5C588.6 974.4 589 971.6 589 936.1V905.3L595.3 904.1C641.5 895.2 669 883.6 700.5 859.7C727.7 839 749.2 809.8 762 776.5C762.4 775.4 763.2 773.4 763.8 772C770.7 755.2 777.4 728.5 779.9 707.5C780.5 702.5 781.2 696.5 781.5 694C781.8 691.5 782.7 677.1 783.5 662C785.5 624.5 785.7 286.7 783.8 278C782.8 273.7 781.5 271.5 778 268C771.3 261.3 769.2 261 723.7 261C696 261 683.7 261.4 680.3 262.2C673.9 263.9 667.9 269.9 666.3 276.3C665.3 280 665 321.3 665 466.2C665 644.8 664.7 664.4 661.9 688C658.6 716.2 655.4 728.9 647.9 744C638 763.8 620.5 779.3 598.1 788.4C594.5 789.8 591.1 791 590.3 791C589.2 791 589 754.7 589 580C589 414.4 588.7 368 587.8 364.3C586.1 357.9 580.1 351.9 573.7 350.2C570.3 349.4 558 349 530.3 349C484.8 349 482.7 349.3 476 356C472.5 359.5 471.2 361.7 470.3 366C469.3 370.4 469 417.1 469 581.3V791H466.7C462.8 791 444.8 781.4 437.9 775.6C417.9 758.9 404.1 734.9 400.1 710C399.1 703.8 398.5 699.1 395.9 678C395 671 394.5 616 394.1 472.5L393.5 276.5L391 272.2C388.4 267.5 383.8 264.2 377.5 262.3C372.2 260.6 295.4 260.7 289.5 262.4V262.4Z" fill="#009933"/>
<path d="M156.4 145.2L153.5 148.5L156.8 145.6C159.8 142.8 160.5 142 159.7 142C159.5 142 158.1 143.5 156.4 145.2Z" fill="#009966" fill-opacity="0.02"/>
<path d="M904.3 563.5C904.3 566.2 904.5 567.3 904.7 565.7C904.9 564.2 904.9 562 904.7 560.7C904.5 559.5 904.3 560.7 904.3 563.5ZM904.3 582C904.3 584.5 904.5 585.5 904.7 584.2C904.9 583 904.9 581 904.7 579.7C904.5 578.5 904.3 579.5 904.3 582Z" fill="#00A452" fill-opacity="0.11"/>
<path d="M785.2 646.5C785.2 648.1 785.4 648.7 785.7 647.7C785.9 646.8 785.9 645.4 785.7 644.7C785.4 644.1 785.2 644.8 785.2 646.5Z" fill="#00A64D" fill-opacity="0.16"/>
<path d="M784.2 646C784.2 647.4 784.4 647.9 784.7 647.2C784.9 646.6 784.9 645.4 784.7 644.7C784.4 644.1 784.2 644.6 784.2 646Z" fill="#00A44E" fill-opacity="0.47"/>
<path d="M905.3 564C905.3 566.5 905.5 567.5 905.7 566.2C905.9 565 905.9 563 905.7 561.7C905.5 560.5 905.3 561.5 905.3 564ZM905.3 581.5C905.3 583.7 905.5 584.5 905.7 583.2C905.9 582 905.9 580.2 905.7 579.2C905.4 578.3 905.2 579.3 905.3 581.5Z" fill="#00A44F" fill-opacity="0.33"/>
<path d="M314.8 260.7C325.3 260.9 342.7 260.9 353.3 260.7C363.8 260.6 355.2 260.5 334 260.5C312.8 260.5 304.2 260.6 314.8 260.7ZM704.8 260.7C715.3 260.9 732.7 260.9 743.3 260.7C753.8 260.6 745.2 260.5 724 260.5C702.8 260.5 694.2 260.6 704.8 260.7ZM664.5 458C664.5 555.1 664.6 594.8 664.7 546.2C664.9 497.7 664.9 418.3 664.7 369.7C664.6 321.2 664.5 360.9 664.5 458V458ZM510.8 348.7C521.3 348.9 538.7 348.9 549.3 348.7C559.8 348.6 551.2 348.5 530 348.5C508.8 348.5 500.2 348.6 510.8 348.7ZM589.5 580C589.5 695.8 589.6 743.1 589.7 685.2C589.9 627.4 589.9 532.6 589.7 474.7C589.6 416.9 589.5 464.2 589.5 580ZM274.2 639C274.2 640.9 274.4 641.7 274.7 640.7C274.9 639.8 274.9 638.2 274.7 637.2C274.4 636.3 274.2 637.1 274.2 639ZM589.4 936C589.4 952.8 589.6 959.6 589.7 951.2C589.9 942.9 589.9 929.1 589.7 920.7C589.6 912.4 589.4 919.2 589.4 936ZM510.8 987.7C521.3 987.9 538.7 987.9 549.3 987.7C559.8 987.6 551.2 987.5 530 987.5C508.8 987.5 500.2 987.6 510.8 987.7Z" fill="#00A750" fill-opacity="0.25"/>
<path d="M785.2 637.5C785.2 639.1 785.4 639.7 785.7 638.7C785.9 637.8 785.9 636.4 785.7 635.7C785.4 635.1 785.2 635.8 785.2 637.5Z" fill="#00A851" fill-opacity="0.17"/>
<path d="M147.4 154.2L145.5 156.5L147.8 154.6C149.9 152.8 150.5 152 149.7 152C149.5 152 148.5 153 147.4 154.2ZM786.5 233C789.2 235.7 791.6 238 791.9 238C792.2 238 790.2 235.7 787.5 233C784.8 230.2 782.4 228 782.1 228C781.8 228 783.8 230.2 786.5 233Z" fill="#00AA55" fill-opacity="0.01"/>
<path d="M527.8 127.7C530.1 127.9 533.9 127.9 536.3 127.7C538.6 127.5 536.7 127.3 532 127.3C527.3 127.3 525.4 127.5 527.8 127.7ZM274.5 458C274.5 555.1 274.6 594.8 274.7 546.2C274.9 497.7 274.9 418.3 274.7 369.7C274.6 321.2 274.5 360.9 274.5 458V458ZM664.2 639.5C664.2 641.1 664.4 641.7 664.7 640.7C664.9 639.8 664.9 638.4 664.7 637.7C664.4 637.1 664.2 637.8 664.2 639.5ZM524.3 1016.7C526.9 1016.9 531.1 1016.9 533.8 1016.7C536.4 1016.5 534.2 1016.4 529 1016.4C523.8 1016.4 521.6 1016.5 524.3 1016.7Z" fill="#00A44D" fill-opacity="0.3"/>
<path d="M267.4 232.2L264.5 235.5L267.8 232.6C269.5 230.9 271 229.5 271 229.3C271 228.5 270.2 229.2 267.4 232.2Z" fill="#00A64F" fill-opacity="0.48"/>
<path d="M1059.2 572C1059.2 573.4 1059.4 573.9 1059.7 573.2C1059.9 572.6 1059.9 571.4 1059.7 570.7C1059.4 570.1 1059.2 570.6 1059.2 572Z" fill="#009F4A" fill-opacity="0.09"/>
<path d="M279.4 266.2L277.5 268.5L279.8 266.6C281.9 264.8 282.5 264 281.7 264C281.5 264 280.5 265 279.4 266.2ZM669.4 266.2L667.5 268.5L669.8 266.6C671.9 264.8 672.5 264 671.7 264C671.5 264 670.5 265 669.4 266.2ZM583.5 354C584.5 355.1 585.5 356 585.8 356C586.1 356 585.5 355.1 584.5 354C583.5 352.9 582.5 352 582.2 352C581.9 352 582.5 352.9 583.5 354ZM583.4 982.2L581.5 984.5L583.8 982.6C585.9 980.8 586.5 980 585.7 980C585.5 980 584.5 981 583.4 982.2Z" fill="#00B14E" fill-opacity="0.05"/>
<path d="M1058.2 572C1058.2 573.4 1058.4 573.9 1058.7 573.2C1058.9 572.6 1058.9 571.4 1058.7 570.7C1058.4 570.1 1058.2 570.6 1058.2 572Z" fill="#00A34E" fill-opacity="0.28"/>
<path d="M787.5 232C789.6 234.2 791.6 236 791.9 236C792.2 236 790.6 234.2 788.5 232C786.4 229.8 784.4 228 784.1 228C783.8 228 785.4 229.8 787.5 232Z" fill="#00A851" fill-opacity="0.18"/>
<path d="M335 841.3C335 841.5 336.5 842.9 338.3 844.6L341.5 847.5L338.6 844.2C335.8 841.2 335 840.5 335 841.3Z" fill="#00A44E" fill-opacity="0.38"/>
<path d="M527.8 128.7C530.1 128.9 533.9 128.9 536.3 128.7C538.6 128.5 536.7 128.3 532 128.3C527.3 128.3 525.4 128.5 527.8 128.7ZM524.3 1015.7C526.9 1015.9 531.1 1015.9 533.8 1015.7C536.4 1015.5 534.2 1015.4 529 1015.4C523.8 1015.4 521.6 1015.5 524.3 1015.7Z" fill="#009555" fill-opacity="0.05"/>
<path d="M394.5 455C394.5 550.4 394.6 589.5 394.7 541.7C394.9 494 394.9 416 394.7 368.2C394.6 320.5 394.5 359.6 394.5 455V455Z" fill="#00A34F" fill-opacity="0.38"/>
<path d="M394.3 636C394.3 638.5 394.5 639.5 394.7 638.2C394.9 637 394.9 635 394.7 633.7C394.5 632.5 394.3 633.5 394.3 636Z" fill="#00A450" fill-opacity="0.43"/>
<path d="M268.4 233.2L265.5 236.5L268.8 233.6C271.8 230.8 272.5 230 271.7 230C271.5 230 270.1 231.5 268.4 233.2ZM163.5 1000C164.5 1001.1 165.5 1002 165.8 1002C166.1 1002 165.5 1001.1 164.5 1000C163.5 998.9 162.5 998 162.2 998C161.9 998 162.5 998.9 163.5 1000Z" fill="#00AE51" fill-opacity="0.09"/>
</svg>
