<svg width="500" height="500" viewBox="0 0 500 500" fill="none" xmlns="http://www.w3.org/2000/svg">
<g clip-path="url(#clip0)">
<circle cx="250" cy="251" r="250" fill="white"/>
<path d="M250 501C112.149 501 0 388.851 0 251C0 113.149 112.149 1 250 1C387.851 1 500 113.149 500 251C500 388.851 387.851 501 250 501ZM250 11.467C117.922 11.467 10.467 118.922 10.467 251C10.467 383.078 117.922 490.533 250 490.533C382.081 490.533 489.533 383.078 489.533 251C489.533 118.922 382.081 11.467 250 11.467ZM250 476.578C125.618 476.578 24.4222 375.385 24.4222 251C24.4222 126.615 125.615 25.4222 250 25.4222C374.385 25.4222 475.578 126.615 475.578 251C475.578 375.382 374.382 476.578 250 476.578ZM250 35.8893C131.388 35.8893 34.8893 132.388 34.8893 251C34.8893 369.612 131.388 466.111 250 466.111C368.612 466.111 465.111 369.612 465.111 251C465.111 132.388 368.612 35.8893 250 35.8893ZM250 453.027C138.602 453.027 47.9731 362.398 47.9731 251C47.9731 139.602 138.602 48.9731 250 48.9731C252.889 48.9731 255.234 51.3177 255.234 54.2066C255.234 57.0955 252.889 59.4401 250 59.4401C144.374 59.4401 58.4401 145.374 58.4401 251C58.4401 356.626 144.372 442.56 250 442.56C252.889 442.56 255.234 444.904 255.234 447.793C255.234 450.682 252.892 453.027 250 453.027ZM250 402.369C166.536 402.369 98.6309 334.464 98.6309 251C98.6309 167.536 166.536 99.6309 250 99.6309C252.889 99.6309 255.234 101.976 255.234 104.864C255.234 107.753 252.889 110.098 250 110.098C172.308 110.098 109.098 173.306 109.098 251C109.098 328.692 172.306 391.902 250 391.902C252.889 391.902 255.234 394.247 255.234 397.136C255.234 400.024 252.892 402.369 250 402.369ZM250 362.312C188.624 362.312 138.688 312.379 138.688 251C138.688 189.621 188.624 139.688 250 139.688C311.379 139.688 361.312 189.624 361.312 251C361.312 312.376 311.379 362.312 250 362.312ZM250 150.155C194.394 150.155 149.155 195.394 149.155 251C149.155 306.606 194.394 351.845 250 351.845C305.606 351.845 350.845 306.606 350.845 251C350.845 195.394 305.606 150.155 250 150.155ZM250 268.98C240.085 268.98 232.018 260.912 232.018 251C232.018 241.085 240.085 233.018 250 233.018C259.915 233.018 267.98 241.085 267.98 251C267.98 260.915 259.915 268.98 250 268.98ZM250 243.487C245.858 243.487 242.485 246.858 242.485 251.003C242.485 255.145 245.855 258.515 250 258.515C254.142 258.515 257.513 255.145 257.513 251.003C257.513 246.858 254.142 243.487 250 243.487Z" fill="#121212"/>
<path d="M250.5 289C271.211 289 288 272.211 288 251.5C288 230.789 271.211 214 250.5 214C229.789 214 213 230.789 213 251.5C213 272.211 229.789 289 250.5 289Z" fill="#121212"/>
<path d="M384.203 191.461C380.004 190.294 376.039 188.195 372.54 186.095C366.474 182.596 361.342 179.097 356.444 175.598C348.979 169.999 343.147 164.168 338.715 157.636C332.883 149.005 328.217 139.674 324.951 130.109C322.619 123.344 321.452 117.046 320.986 110.981C320.752 107.482 320.752 103.982 320.752 100.95V100.717L322.619 102.583C323.785 103.982 324.951 105.149 326.351 106.548C326.818 107.015 327.051 107.248 327.284 108.415L327.984 111.914C328.45 114.713 329.15 117.746 330.083 120.545C331.483 125.21 335.215 127.777 338.948 130.109C343.147 132.675 348.046 134.775 353.878 136.174C353.878 136.56 353.948 136.945 354.012 137.291C354.064 137.574 354.111 137.831 354.111 138.041C354.223 138.658 354.322 139.274 354.42 139.888C354.73 141.827 355.035 143.733 355.744 145.505C357.843 152.27 362.275 156.936 369.274 159.735C370.557 160.202 371.781 160.727 373.006 161.252C374.231 161.776 375.456 162.301 376.739 162.768L378.838 163.701C378.838 163.911 378.885 164.12 378.937 164.351C379.001 164.634 379.071 164.949 379.071 165.334C379.271 167.33 379.641 169.155 380.036 171.102C380.103 171.43 380.17 171.762 380.238 172.099C381.637 179.097 386.303 183.996 393.534 187.029C398.2 188.895 403.565 190.061 408.931 190.528C409.63 191.227 410.563 192.161 411.497 192.86C413.13 194.26 414.762 195.66 415.696 197.293C412.663 197.293 410.563 197.059 408.697 196.826C407.846 196.613 406.995 196.449 406.166 196.289C405.178 196.098 404.22 195.914 403.332 195.66L402.931 195.586L402.295 195.468H402.294C396.318 194.363 390.156 193.225 384.203 191.461Z" fill="white"/>
<path d="M248.437 151.571C251.003 150.171 254.969 149.938 259.168 151.104C254.502 155.77 250.07 158.336 242.372 156.936C244.005 154.603 246.104 152.737 248.437 151.571Z" fill="white"/>
<path d="M336.149 107.715C338.481 107.715 340.814 108.181 342.914 109.581C348.979 113.547 354.344 118.212 354.577 126.377C345.013 123.578 337.781 118.679 336.149 107.715Z" fill="white"/>
<path d="M419.895 187.495L419.195 186.562C417.795 185.163 416.395 183.53 415.462 182.13C414.296 180.264 413.596 177.931 413.13 176.065C413.013 175.715 412.896 175.307 412.78 174.898C412.663 174.49 412.546 174.082 412.43 173.732C411.73 170.699 410.797 167.434 408.931 164.401C405.898 159.502 401.232 156.236 394.934 154.603C394.24 154.465 393.546 154.243 392.902 154.038C392.463 153.898 392.046 153.765 391.668 153.67C390.968 153.437 390.269 153.204 389.335 153.204C388.169 152.971 387.936 152.737 387.936 152.737C387.703 152.504 387.469 150.871 387.469 150.171C387.003 146.206 386.07 141.54 383.27 137.574C379.071 131.276 373.473 127.543 366.941 126.377H366.474C366.358 126.377 366.183 126.319 366.008 126.26C365.833 126.202 365.658 126.144 365.541 126.144C363.908 125.911 363.209 125.911 363.209 125.911C362.975 125.677 362.975 124.511 362.975 123.345V122.645C362.042 110.281 353.178 102.816 345.946 100.25C343.847 99.5504 341.281 99.0838 338.248 98.8506C334.516 98.6173 331.483 96.7511 328.451 92.5521C327.984 92.0856 327.517 91.3857 327.284 90.9192C334.982 90.9192 343.147 92.3188 352.944 95.1182C357.143 96.2845 361.342 97.9175 366.008 99.7837C372.773 102.816 379.305 106.549 385.37 111.447C389.802 114.947 394.001 119.146 397.733 123.578C402.632 129.41 406.598 135.708 409.864 142.473C414.529 152.271 417.562 161.602 418.728 170.699C419.18 173.413 419.438 176.127 419.689 178.777C419.827 180.228 419.963 181.66 420.128 183.063C420.244 183.763 420.303 184.463 420.361 185.163C420.419 185.862 420.478 186.563 420.594 187.262C420.253 187.604 420.161 187.57 420.045 187.528C420.003 187.512 419.957 187.495 419.895 187.495Z" fill="white"/>
<path d="M361.809 134.775C365.308 136.408 368.574 138.041 371.84 139.674C376.039 141.773 377.672 145.739 378.838 149.938C378.955 150.521 379.013 151.104 379.071 151.687C379.13 152.271 379.188 152.854 379.305 153.437C369.274 151.337 361.809 145.506 361.809 134.775Z" fill="white"/>
<path d="M399.133 167.9C401.232 169.999 402.865 172.566 404.498 175.132C405.665 176.998 405.198 179.097 404.732 181.197C395.167 179.797 386.536 170.466 387.469 161.602C387.867 161.756 388.265 161.909 388.662 162.061L388.664 162.062C392.457 163.517 396.177 164.944 399.133 167.9Z" fill="white"/>
<path d="M271.065 112.487C271.065 112.487 279.229 108.182 281.562 107.482C290.427 104.916 297.658 103.749 304.656 103.749H306.056H307.689H307.922V104.916C307.922 109.115 308.155 113.314 308.389 117.746V118.212L307.922 118.679C304.89 121.012 301.624 123.811 299.991 128.01C295.559 127.077 290.893 126.144 285.994 126.61C282.262 127.077 278.296 127.777 274.797 130.809C273.397 131.976 271.998 133.375 270.831 134.542C269.665 135.475 268.732 136.641 267.566 137.574L265.933 139.207L264.999 140.14C264.533 140.14 263.367 139.674 261.734 139.207C261.267 139.207 261.034 138.974 260.567 138.974H260.101C253.569 137.808 247.271 138.741 241.672 142.24C235.607 145.739 230.708 151.104 226.742 158.102V158.336C224.176 159.036 221.377 159.735 218.811 160.202H218.578C218.811 159.735 219.044 159.036 219.511 158.336L219.744 157.869C222.543 153.204 225.343 148.305 228.375 143.873C232.341 138.041 237.24 132.675 243.538 127.543C247.271 124.278 267.099 115.286 271.065 112.487Z" fill="white"/>
<path d="M309.322 127.543L313.054 122.178L317.72 136.641H314.454H313.054H311.655H309.788C307.922 136.408 306.989 135.475 306.756 134.775C306.289 134.075 306.056 132.675 307.222 130.809C307.572 130.226 307.922 129.701 308.272 129.176C308.622 128.651 308.972 128.127 309.322 127.543Z" fill="white"/>
<path d="M297.658 136.408C291.593 144.573 285.994 148.771 272.698 145.739C275.264 138.041 289.26 132.909 297.658 136.408Z" fill="white"/>
<path d="M225.576 170.233C228.608 169.067 231.641 168.133 234.907 167.434C235.607 167.2 237.006 167.434 238.173 167.9C238.873 168.133 239.806 168.367 240.739 168.367C250.07 169.533 257.535 167.667 263.367 162.535C265.233 160.902 267.099 159.036 268.732 157.17L270.831 155.07L271.065 154.837C276.663 156.003 283.895 156.936 290.893 154.137C295.325 152.504 299.058 149.705 302.557 145.739C303.023 145.272 303.49 144.806 303.723 144.339C304.19 143.64 304.89 142.94 305.356 142.473C309.322 144.106 312.588 144.573 316.087 144.106C316.32 144.573 316.553 144.981 316.787 145.389C317.02 145.797 317.253 146.206 317.486 146.672C316.787 146.905 316.145 147.139 315.504 147.372C314.862 147.605 314.221 147.838 313.521 148.072L312.354 148.538C306.756 150.638 300.924 152.971 295.325 155.537C288.094 158.569 280.862 162.768 273.631 167.667C271.997 168.756 270.443 170.004 268.922 171.225C267.836 172.097 266.768 172.955 265.699 173.732L263.367 175.598C263.017 175.832 262.725 176.123 262.433 176.415C262.142 176.706 261.85 176.998 261.5 177.231C260.8 177.931 260.334 178.398 259.634 178.864H259.168C258.468 178.747 257.826 178.689 257.185 178.631C256.543 178.573 255.902 178.514 255.202 178.398C253.514 178.06 251.772 177.75 249.998 177.434C244.418 176.439 238.528 175.39 233.041 173.266C231.415 172.675 229.79 171.99 228.224 171.33C227.318 170.948 226.431 170.575 225.576 170.233Z" fill="white"/>
<path d="M245.638 248.147L243.538 249.546V248.847C244.705 242.082 246.104 234.85 247.737 227.852C249.603 220.62 252.169 213.389 255.902 205.691C259.168 199.159 262.9 193.56 267.099 188.661C274.564 180.263 284.128 173.498 297.658 167.2C306.056 163.234 314.921 160.202 324.252 158.102C324.835 159.152 325.476 160.143 326.118 161.135V161.136C326.76 162.127 327.401 163.118 327.984 164.167C327.284 164.401 326.584 164.576 325.884 164.751C325.185 164.926 324.485 165.101 323.785 165.334C319.353 166.967 315.62 169.766 312.354 173.498C311.362 174.69 310.876 176.22 310.465 177.512C310.394 177.737 310.324 177.956 310.255 178.164C310.022 178.631 310.022 178.864 310.022 179.33C309.905 179.914 309.788 180.438 309.672 180.963C309.555 181.488 309.439 182.013 309.322 182.596L308.622 185.396C307.922 187.962 306.756 189.128 302.79 189.361C300.224 189.594 297.658 189.828 294.392 190.528C287.861 191.694 285.294 196.593 283.428 201.258L280.629 208.257C280.396 208.84 280.162 209.481 279.929 210.123C279.696 210.764 279.463 211.406 279.229 211.989C278.996 212.456 278.763 212.922 277.596 213.155C270.598 213.389 265 216.654 261.034 219.687C255.202 223.886 252.169 229.951 251.236 238.116V239.982C251.215 240.198 251.195 240.405 251.176 240.606V240.608C250.991 242.572 250.873 243.823 249.603 244.881C249.157 245.253 248.734 245.625 248.32 245.989C247.436 246.767 246.591 247.511 245.638 248.147Z" fill="white"/>
<path d="M307.922 199.159C304.89 208.49 298.358 214.089 288.56 216.422C288.094 213.855 288.56 211.756 289.727 209.657C292.759 204.291 296.958 200.326 303.023 198.459C303.973 198.143 305.136 198.256 306.224 198.361C306.74 198.411 307.238 198.459 307.689 198.459C307.689 198.576 307.747 198.693 307.806 198.809C307.864 198.926 307.922 199.042 307.922 199.159Z" fill="white"/>
<path d="M273.864 229.951C272.464 231.818 271.065 233.684 269.432 235.317C268.265 236.483 266.632 236.95 264.766 236.95H263.133C265.466 231.118 271.065 226.686 276.663 225.752C276.352 226.219 276.067 226.711 275.782 227.204C275.212 228.189 274.642 229.174 273.864 229.951Z" fill="white"/>
<path d="M329.617 173.732C330.55 173.499 331.483 173.265 332.649 173.265C334.749 173.265 334.982 173.499 334.516 175.598C333.582 180.497 330.783 184.229 326.584 187.029C324.018 188.895 321.219 189.828 318.186 189.828C317.99 189.828 317.752 189.869 317.49 189.917L317.437 189.927C317.091 189.991 316.705 190.061 316.32 190.061C315.62 186.096 317.253 183.296 319.586 180.73C322.385 177.698 325.651 175.132 329.617 173.732Z" fill="white"/>
<path d="M336.848 195.893L324.018 213.156C321.685 217.588 319.353 222.487 317.253 227.152C316.32 229.252 315.62 231.584 315.154 233.684C314.687 234.85 314.454 236.017 313.987 237.183L313.754 237.416C305.823 242.315 298.824 246.048 292.059 248.614C287.161 250.713 281.795 252.579 276.197 254.212C272.698 255.145 268.499 255.612 264.999 255.845C261.967 256.078 258.934 256.078 255.902 256.078H253.102L253.336 255.845C255.668 253.746 258.234 251.413 260.801 249.547C261.267 249.313 262.2 249.08 263.133 249.08C263.6 249.08 264.066 248.847 264.766 248.847C270.132 247.68 274.33 246.048 277.83 243.715C282.728 240.682 285.994 236.017 287.86 229.485C288.094 228.785 288.327 227.852 288.56 227.152L289.26 224.353C289.26 224.12 289.26 224.12 289.96 223.886L292.759 223.187C295.792 222.253 299.058 221.554 302.09 220.387C308.855 217.821 313.288 212.689 315.154 204.524C315.387 203.358 315.854 202.192 316.087 201.025C316.32 199.859 316.787 199.159 318.42 198.926C323.318 197.993 328.217 197.06 332.649 194.26C337.781 190.761 340.814 186.096 342.914 180.964L343.147 181.197L348.046 184.696L347.112 185.629L336.848 195.893Z" fill="white"/>
<path d="M330.317 281.972C328.217 285.004 325.884 288.037 323.785 290.836C323.085 286.404 322.619 282.905 322.152 279.406C321.685 275.673 321.219 271.941 321.219 267.975C321.219 265.409 321.452 262.61 321.919 259.111L322.152 257.944C322.619 253.979 323.085 250.013 324.018 246.281C326.118 237.883 329.15 229.485 332.883 221.32C333.583 219.687 344.26 206.019 344.26 206.019C344.26 206.019 349.212 200.792 351.311 198.692C352.478 197.759 353.411 196.593 354.577 195.427C355.744 194.26 356.677 193.094 357.843 192.161C358.076 192.161 358.31 191.927 358.543 191.927C362.742 194.027 366.008 195.893 369.04 197.993C369.507 198.226 370.207 198.926 369.74 199.859C369.74 200.325 369.507 200.559 369.507 201.025C369.507 201.492 369.274 201.958 369.274 202.192C367.407 206.624 367.874 210.823 368.107 214.789C362.509 217.121 358.076 220.387 354.811 224.586C352.245 227.852 350.612 232.051 349.912 237.183C349.679 238.583 349.679 239.982 349.445 241.382C349.445 242.548 349.212 243.715 349.212 244.881C343.847 247.68 339.414 250.946 335.915 254.912C331.716 259.344 329.617 264.709 329.384 270.541C329.15 274.74 329.617 278.239 330.317 281.972Z" fill="white"/>
<path d="M406.598 212.456C406.131 215.955 405.665 219.454 404.965 222.953C403.565 230.418 401.466 237.649 398.667 244.414C395.167 252.346 391.902 257.944 387.469 262.61C378.372 272.174 368.574 279.872 358.077 285.937C350.378 290.37 343.147 293.169 335.682 294.335H335.449C337.082 292.003 338.715 289.437 340.114 287.104C341.047 285.704 341.981 284.771 343.38 284.071C347.579 281.738 350.612 279.872 353.411 277.539C358.31 273.807 359.943 268.208 360.643 263.776C361.109 260.977 361.576 258.178 361.809 255.378L362.042 253.512V253.279L362.509 253.046C362.742 252.929 362.975 252.871 363.209 252.812C363.442 252.754 363.675 252.696 363.908 252.579C365.541 252.112 367.174 251.646 368.574 250.479C371.607 248.613 373.473 246.747 375.106 244.648C378.605 239.982 380.471 235.083 380.938 229.951C381.171 228.318 380.938 226.685 380.471 225.052C380.004 222.72 380.238 222.486 382.104 221.553C382.669 221.177 383.386 220.952 384.01 220.757C384.071 220.737 384.132 220.718 384.192 220.7C384.24 220.684 384.288 220.669 384.335 220.654C384.369 220.642 384.403 220.631 384.437 220.62L385.836 220.154C389.336 218.754 392.135 216.421 394.701 212.689C394.964 212.338 395.195 211.986 395.417 211.647C395.785 211.086 396.131 210.559 396.567 210.123C396.735 209.872 396.932 209.62 397.138 209.359C397.506 208.891 397.901 208.388 398.2 207.79C398.9 208.257 399.833 208.257 400.299 208.257H400.533C401.466 208.257 402.399 208.257 403.332 208.49C404.498 208.49 405.665 208.49 406.831 208.723C407.046 209.799 406.865 210.874 406.652 212.133L406.649 212.152L406.641 212.197L406.622 212.312L406.598 212.456Z" fill="white"/>
<path d="M343.147 271.708C342.214 272.874 341.281 273.341 339.648 273.341C340.114 267.276 344.313 260.277 350.145 257.945C350.845 260.277 350.612 261.91 349.212 263.543C348.629 264.359 347.988 265.175 347.347 265.992L347.346 265.993H347.345C346.704 266.81 346.063 267.626 345.48 268.442C345.13 269.025 344.721 269.55 344.313 270.075C343.905 270.6 343.497 271.125 343.147 271.708Z" fill="white"/>
<path d="M370.907 223.653C374.172 230.884 368.341 240.682 358.31 245.347C355.744 236.483 361.809 225.986 370.907 223.653Z" fill="white"/>
<path d="M379.305 201.958C380.004 200.792 381.171 200.792 382.337 201.025C383.154 201.258 383.97 201.55 384.787 201.842C385.603 202.133 386.419 202.425 387.236 202.658C388.636 203.125 389.102 203.825 388.402 205.224C387.003 208.257 385.136 210.823 382.104 212.456C381.521 212.806 380.937 213.097 380.296 213.418C379.654 213.739 378.955 214.089 378.138 214.555C376.972 209.89 376.505 205.691 379.305 201.958Z" fill="white"/>
<path fill-rule="evenodd" clip-rule="evenodd" d="M432.025 174.432C430.159 163.701 426.659 153.437 421.761 142.94C418.028 135.008 413.363 126.844 408.231 119.145C404.732 113.78 400.299 107.482 394.467 102.816C386.07 96.0512 376.505 90.9191 364.608 86.9534C354.111 83.4543 344.313 81.1215 334.982 80.1884C330.317 79.7219 325.651 79.4886 320.986 79.2553C319.353 79.2553 317.953 79.022 316.32 79.022C313.288 78.7888 310.955 80.4217 310.255 83.221C309.555 86.0203 309.089 88.3531 308.855 91.1524C308.855 91.8522 308.622 92.0855 308.855 92.0855H308.155C306.289 92.0855 304.656 92.0855 302.79 92.3188C298.358 92.3188 293.926 92.552 289.26 93.0186C284.828 93.4851 280.629 94.6515 276.663 95.5846L275.497 95.8179C273.864 96.751 249.837 107.248 247.97 108.415C238.406 114.946 229.775 122.411 222.31 130.576C217.178 136.175 213.212 142.24 210.413 148.305C208.314 152.97 206.447 157.869 204.814 162.768L203.415 166.734C202.715 168.833 202.482 171.866 206.214 173.732C207.847 174.665 209.713 175.598 211.346 176.765C212.046 177.231 212.979 177.698 213.679 178.164C215.312 179.097 216.711 180.264 218.578 180.963C220.211 181.663 221.843 182.363 223.243 182.83C223.943 183.063 224.876 183.296 225.576 183.763C232.574 186.329 240.039 187.962 246.337 188.895C247.97 189.128 249.837 189.361 251.469 189.595C246.804 196.593 243.072 203.825 240.506 211.989C237.94 219.687 235.84 227.385 233.974 235.083C232.807 239.282 232.341 243.715 231.874 247.914L231.408 250.48C230.941 253.512 230.708 256.312 230.708 259.344C230.708 264.01 233.974 267.509 238.406 267.742H240.272C242.605 267.742 244.938 267.975 247.271 267.975H250.303C253.336 267.975 256.602 268.209 259.634 267.975C264.766 267.742 269.665 267.275 274.564 266.576C284.128 264.943 293.926 261.677 305.823 256.312C307.222 255.612 308.855 254.912 310.255 254.212C310.022 255.845 309.788 257.711 309.788 259.344C309.555 261.21 309.555 263.543 309.555 266.109C309.555 270.075 309.555 273.341 309.788 276.607C310.022 278.706 310.255 280.805 310.488 282.672L310.722 284.538C310.955 286.637 311.421 288.504 311.655 290.37C311.655 291.07 311.888 291.536 312.121 292.236C312.121 292.469 312.354 292.936 312.354 293.169L313.521 297.601C313.987 299.934 314.687 302.034 315.154 304.133C315.854 306.932 317.953 308.565 320.752 308.565H322.852C324.718 308.565 326.584 308.565 328.684 308.099C338.481 306.466 347.812 303.666 356.21 299.934C367.174 295.035 376.972 288.504 385.136 281.039C392.135 274.507 397.267 268.675 401.466 262.377C406.131 255.145 410.097 247.447 412.896 239.516C415.229 232.751 417.095 225.986 418.028 219.454C418.495 216.655 418.728 213.622 418.961 210.823L419.195 208.49H419.894H424.093C427.826 208.49 430.625 206.391 431.092 203.125L431.325 201.492C431.792 198.692 432.258 196.126 432.491 193.094C433.424 186.562 432.958 180.264 432.025 174.432ZM281.562 107.482C279.229 108.181 271.065 112.487 271.065 112.487C267.099 115.286 247.271 124.278 243.538 127.543C237.24 132.675 232.341 138.041 228.375 143.873C225.343 148.305 222.543 153.204 219.744 157.869L219.511 158.336C219.044 159.036 218.811 159.735 218.578 160.202H218.811C221.377 159.735 224.176 159.036 226.742 158.336V158.102C230.708 151.104 235.607 145.739 241.672 142.24C247.271 138.741 253.569 137.808 260.101 138.974H260.567C261.034 138.974 261.267 139.207 261.734 139.207C263.367 139.674 264.533 140.14 264.999 140.14L265.933 139.207L267.566 137.574C268.732 136.641 269.665 135.475 270.831 134.542C271.998 133.375 273.397 131.976 274.797 130.809C278.296 127.777 282.262 127.077 285.994 126.61C290.893 126.144 295.559 127.077 299.991 128.01C301.624 123.811 304.89 121.012 307.922 118.679L308.389 118.212V117.746C308.155 113.314 307.922 109.115 307.922 104.916V103.749H307.689H306.056H304.656C297.658 103.749 290.427 104.916 281.562 107.482ZM309.322 127.543C308.972 128.127 308.622 128.651 308.272 129.176C307.922 129.701 307.572 130.226 307.222 130.809C306.056 132.675 306.289 134.075 306.756 134.775C306.989 135.475 307.922 136.408 309.788 136.641H311.655H313.054H314.454H317.72L313.054 122.178L309.322 127.543ZM297.658 136.408C291.593 144.573 285.994 148.771 272.698 145.739C275.264 138.041 289.26 132.909 297.658 136.408ZM259.168 151.104C254.969 149.938 251.003 150.171 248.437 151.571C246.104 152.737 244.005 154.603 242.372 156.936C250.07 158.336 254.502 155.77 259.168 151.104ZM225.576 170.233C226.431 170.575 227.318 170.948 228.224 171.33C229.79 171.99 231.415 172.674 233.041 173.265C238.528 175.39 244.418 176.439 249.998 177.433C251.772 177.749 253.514 178.06 255.202 178.397C255.902 178.514 256.543 178.572 257.185 178.631C257.826 178.689 258.468 178.747 259.168 178.864H259.634C260.334 178.397 260.801 177.931 261.5 177.231C261.85 176.998 262.142 176.706 262.433 176.415C262.725 176.123 263.017 175.831 263.367 175.598L265.699 173.732C266.768 172.955 267.836 172.097 268.922 171.225C270.443 170.004 271.997 168.756 273.631 167.667C280.862 162.768 288.094 158.569 295.325 155.536C300.924 152.97 306.756 150.638 312.354 148.538L313.521 148.072C314.221 147.838 314.862 147.605 315.504 147.372C316.145 147.139 316.787 146.905 317.486 146.672C317.253 146.205 317.02 145.797 316.787 145.389C316.553 144.981 316.32 144.572 316.087 144.106C312.588 144.573 309.322 144.106 305.356 142.473C304.89 142.94 304.19 143.639 303.723 144.339C303.49 144.806 303.023 145.272 302.557 145.739C299.058 149.705 295.325 152.504 290.893 154.137C283.895 156.936 276.663 156.003 271.065 154.837L270.831 155.07L268.732 157.169C267.099 159.036 265.233 160.902 263.367 162.535C257.535 167.667 250.07 169.533 240.739 168.367C239.806 168.367 238.873 168.133 238.173 167.9C237.006 167.434 235.607 167.2 234.907 167.434C231.641 168.133 228.608 169.066 225.576 170.233ZM249.603 244.881C250.873 243.823 250.991 242.573 251.176 240.608V240.606C251.195 240.406 251.215 240.198 251.236 239.982V238.116C252.169 229.951 255.202 223.886 261.034 219.687C264.999 216.655 270.598 213.389 277.596 213.156C278.763 212.922 278.996 212.456 279.229 211.989C279.463 211.406 279.696 210.764 279.929 210.123C280.162 209.481 280.396 208.84 280.629 208.257L283.428 201.258C285.294 196.593 287.86 191.694 294.392 190.528C297.658 189.828 300.224 189.595 302.79 189.361C306.756 189.128 307.922 187.962 308.622 185.396L309.322 182.596C309.438 182.013 309.555 181.488 309.672 180.963C309.788 180.439 309.905 179.914 310.022 179.331C310.022 178.864 310.022 178.631 310.255 178.164C310.324 177.956 310.394 177.738 310.465 177.512C310.876 176.22 311.362 174.69 312.354 173.499C315.62 169.766 319.353 166.967 323.785 165.334C324.485 165.101 325.185 164.926 325.884 164.751C326.584 164.576 327.284 164.401 327.984 164.168C327.401 163.118 326.76 162.127 326.118 161.136V161.135C325.476 160.144 324.835 159.152 324.251 158.102C314.92 160.202 306.056 163.235 297.658 167.2C284.128 173.499 274.564 180.264 267.099 188.662C262.9 193.56 259.168 199.159 255.902 205.691C252.169 213.389 249.603 220.62 247.737 227.852C246.104 234.85 244.705 242.082 243.538 248.847V249.547L245.638 248.147C246.591 247.511 247.436 246.767 248.32 245.989C248.734 245.625 249.157 245.253 249.603 244.881ZM332.649 173.265C331.483 173.265 330.55 173.499 329.617 173.732C325.651 175.132 322.385 177.698 319.586 180.73C317.253 183.296 315.62 186.096 316.32 190.061C316.705 190.061 317.091 189.991 317.437 189.927C317.454 189.924 317.473 189.92 317.49 189.917C317.752 189.869 317.99 189.828 318.186 189.828C321.219 189.828 324.018 188.895 326.584 187.029C330.783 184.229 333.583 180.497 334.516 175.598C334.982 173.499 334.749 173.265 332.649 173.265ZM288.56 216.421C298.358 214.089 304.89 208.49 307.922 199.159C307.922 199.042 307.864 198.926 307.806 198.809C307.747 198.692 307.689 198.576 307.689 198.459C307.238 198.459 306.74 198.411 306.224 198.361C305.136 198.256 303.973 198.143 303.023 198.459C296.958 200.325 292.759 204.291 289.727 209.656C288.56 211.756 288.094 213.855 288.56 216.421ZM273.864 229.951C274.642 229.174 275.212 228.189 275.782 227.204C276.067 226.711 276.352 226.219 276.663 225.752C271.065 226.686 265.466 231.118 263.133 236.95H264.766C266.632 236.95 268.265 236.483 269.432 235.317C271.065 233.684 272.464 231.818 273.864 229.951ZM323.785 290.836C325.884 288.037 328.217 285.004 330.317 281.972C329.617 278.239 329.15 274.74 329.384 270.541C329.617 264.709 331.716 259.344 335.915 254.912C339.414 250.946 343.847 247.68 349.212 244.881C349.212 243.715 349.445 242.548 349.445 241.382C349.679 239.982 349.679 238.583 349.912 237.183C350.612 232.051 352.245 227.852 354.811 224.586C358.076 220.387 362.509 217.121 368.107 214.788C367.874 210.823 367.407 206.624 369.274 202.192C369.274 201.958 369.507 201.492 369.507 201.025C369.507 200.559 369.74 200.325 369.74 199.859C370.207 198.926 369.507 198.226 369.04 197.993C366.008 195.893 362.742 194.027 358.543 191.927C358.31 191.927 358.076 192.161 357.843 192.161C356.677 193.094 355.744 194.26 354.577 195.427C353.411 196.593 352.478 197.759 351.311 198.692C349.212 200.792 344.26 206.019 344.26 206.019C344.26 206.019 333.583 219.687 332.883 221.32C329.15 229.485 326.118 237.883 324.018 246.281C323.085 250.013 322.619 253.979 322.152 257.944L321.919 259.111C321.452 262.61 321.219 265.409 321.219 267.975C321.219 271.941 321.685 275.673 322.152 279.406C322.619 282.905 323.085 286.404 323.785 290.836ZM324.018 213.156L336.848 195.893L347.113 185.629L348.046 184.696L343.147 181.197L342.914 180.963C340.814 186.096 337.781 190.761 332.649 194.26C328.217 197.06 323.318 197.993 318.42 198.926C316.787 199.159 316.32 199.859 316.087 201.025C315.854 202.192 315.387 203.358 315.154 204.524C313.288 212.689 308.855 217.821 302.09 220.387C299.058 221.553 295.792 222.253 292.759 223.186L289.96 223.886C289.26 224.119 289.26 224.119 289.26 224.353L288.56 227.152C288.327 227.852 288.094 228.785 287.86 229.485C285.994 236.017 282.728 240.682 277.83 243.715C274.331 246.047 270.132 247.68 264.766 248.847C264.066 248.847 263.6 249.08 263.133 249.08C262.2 249.08 261.267 249.313 260.801 249.547C258.234 251.413 255.668 253.745 253.336 255.845L253.102 256.078H255.902C258.934 256.078 261.967 256.078 264.999 255.845C268.499 255.612 272.698 255.145 276.197 254.212C281.795 252.579 287.161 250.713 292.059 248.613C298.824 246.047 305.823 242.315 313.754 237.416L313.987 237.183C314.454 236.017 314.687 234.85 315.154 233.684C315.62 231.584 316.32 229.252 317.253 227.152C319.353 222.487 321.685 217.588 324.018 213.156ZM370.907 223.653C374.172 230.884 368.341 240.682 358.31 245.348C355.744 236.483 361.809 225.986 370.907 223.653ZM345.48 268.442C346.063 267.626 346.704 266.81 347.345 265.993L347.346 265.992L347.347 265.991C347.988 265.175 348.629 264.359 349.212 263.543C350.612 261.91 350.845 260.277 350.145 257.944C344.313 260.277 340.114 267.275 339.648 273.341C341.281 273.341 342.214 272.874 343.147 271.708C343.497 271.125 343.905 270.6 344.313 270.075C344.721 269.55 345.13 269.025 345.48 268.442ZM404.965 222.953C405.665 219.454 406.131 215.955 406.598 212.456C406.606 212.408 406.614 212.36 406.622 212.312C406.628 212.274 406.635 212.235 406.641 212.197C406.644 212.182 406.646 212.167 406.649 212.152C406.65 212.146 406.651 212.139 406.652 212.133C406.865 210.875 407.046 209.799 406.831 208.723C405.665 208.49 404.498 208.49 403.332 208.49C402.399 208.257 401.466 208.257 400.533 208.257H400.299C399.833 208.257 398.9 208.257 398.2 207.79C397.901 208.388 397.506 208.891 397.138 209.359C396.932 209.621 396.734 209.872 396.567 210.123C396.131 210.559 395.785 211.086 395.417 211.647C395.195 211.986 394.964 212.338 394.701 212.689C392.135 216.421 389.335 218.754 385.836 220.154L384.437 220.62C384.403 220.631 384.369 220.643 384.335 220.654C384.288 220.669 384.24 220.684 384.191 220.7C384.132 220.719 384.071 220.737 384.01 220.757C383.386 220.952 382.669 221.177 382.104 221.553C380.238 222.487 380.004 222.72 380.471 225.053C380.937 226.686 381.171 228.318 380.937 229.951C380.471 235.083 378.605 239.982 375.106 244.648C373.473 246.747 371.606 248.613 368.574 250.48C367.174 251.646 365.541 252.113 363.908 252.579C363.675 252.696 363.442 252.754 363.209 252.812C362.975 252.871 362.742 252.929 362.509 253.046L362.042 253.279V253.512L361.809 255.378C361.576 258.178 361.109 260.977 360.642 263.776C359.943 268.209 358.31 273.807 353.411 277.54C350.612 279.872 347.579 281.739 343.38 284.071C341.98 284.771 341.047 285.704 340.114 287.104C338.715 289.437 337.082 292.003 335.449 294.335H335.682C343.147 293.169 350.378 290.37 358.076 285.938C368.574 279.872 378.371 272.174 387.469 262.61C391.901 257.944 395.167 252.346 398.666 244.414C401.466 237.649 403.565 230.418 404.965 222.953ZM382.337 201.025C381.171 200.792 380.004 200.792 379.305 201.958C376.505 205.691 376.972 209.89 378.138 214.555C378.955 214.089 379.654 213.739 380.296 213.418C380.937 213.097 381.521 212.806 382.104 212.456C385.136 210.823 387.003 208.257 388.402 205.224C389.102 203.825 388.636 203.125 387.236 202.658C386.419 202.425 385.603 202.133 384.787 201.842C383.97 201.55 383.154 201.258 382.337 201.025ZM403.332 195.66C404.22 195.914 405.178 196.098 406.166 196.289C406.995 196.449 407.846 196.613 408.697 196.826C410.563 197.06 412.663 197.293 415.696 197.293C414.762 195.66 413.13 194.26 411.497 192.861C410.563 192.161 409.63 191.228 408.931 190.528C403.565 190.061 398.2 188.895 393.534 187.029C386.303 183.996 381.637 179.097 380.238 172.099C380.17 171.762 380.103 171.43 380.036 171.102C379.641 169.155 379.271 167.33 379.071 165.334C379.071 164.949 379.001 164.634 378.937 164.351C378.885 164.121 378.838 163.911 378.838 163.701L376.739 162.768C375.455 162.301 374.231 161.777 373.006 161.252C371.781 160.727 370.557 160.202 369.274 159.735C362.275 156.936 357.843 152.271 355.744 145.506C355.035 143.734 354.73 141.827 354.42 139.888C354.322 139.275 354.223 138.658 354.111 138.041C354.111 137.831 354.064 137.574 354.012 137.291C353.948 136.945 353.877 136.56 353.877 136.175C348.046 134.775 343.147 132.675 338.948 130.109C335.215 127.777 331.483 125.211 330.083 120.545C329.15 117.746 328.45 114.713 327.984 111.914L327.284 108.415C327.051 107.248 326.818 107.015 326.351 106.549C324.951 105.149 323.785 103.983 322.619 102.583L320.752 100.717V100.95C320.752 103.983 320.752 107.482 320.986 110.981C321.452 117.046 322.619 123.344 324.951 130.109C328.217 139.674 332.883 149.005 338.715 157.636C343.147 164.168 348.979 170 356.444 175.598C361.342 179.097 366.474 182.596 372.54 186.096C376.039 188.195 380.004 190.295 384.203 191.461C390.156 193.225 396.318 194.363 402.294 195.468H402.295C402.507 195.507 402.719 195.547 402.931 195.586C403.065 195.61 403.198 195.635 403.332 195.66ZM342.914 109.581C340.814 108.181 338.481 107.715 336.149 107.715C337.781 118.679 345.013 123.578 354.577 126.377C354.344 118.212 348.979 113.547 342.914 109.581ZM371.84 139.674C368.574 138.041 365.308 136.408 361.809 134.775C361.809 145.506 369.274 151.337 379.305 153.437C379.188 152.854 379.13 152.271 379.071 151.687C379.013 151.104 378.955 150.521 378.838 149.938C377.672 145.739 376.039 141.773 371.84 139.674ZM399.133 167.9C396.177 164.944 392.457 163.517 388.664 162.062L388.662 162.061C388.265 161.909 387.867 161.756 387.469 161.602C386.536 170.466 395.167 179.797 404.732 181.197C405.198 179.097 405.665 176.998 404.498 175.132C402.865 172.566 401.232 170 399.133 167.9ZM419.195 186.562L419.894 187.495C419.957 187.495 420.003 187.512 420.045 187.528C420.161 187.57 420.253 187.603 420.594 187.262C420.478 186.562 420.419 185.862 420.361 185.162C420.303 184.463 420.244 183.763 420.128 183.063C419.963 181.66 419.827 180.228 419.689 178.777C419.438 176.126 419.18 173.413 418.728 170.699C417.562 161.602 414.529 152.271 409.864 142.473C406.598 135.708 402.632 129.41 397.733 123.578C394.001 119.145 389.802 114.946 385.37 111.447C379.305 106.549 372.773 102.816 366.008 99.7836C361.342 97.9174 357.143 96.2844 352.944 95.1181C343.147 92.3188 334.982 90.9191 327.284 90.9191C327.517 91.3857 327.984 92.0855 328.45 92.552C331.483 96.751 334.516 98.6172 338.248 98.8505C341.281 99.0837 343.847 99.5503 345.946 100.25C353.178 102.816 362.042 110.281 362.975 122.645V123.344C362.975 124.511 362.975 125.677 363.209 125.91C363.209 125.91 363.908 125.91 365.541 126.144C365.658 126.144 365.833 126.202 366.008 126.26C366.183 126.319 366.358 126.377 366.474 126.377H366.941C373.473 127.543 379.071 131.276 383.27 137.574C386.07 141.54 387.003 146.205 387.469 150.171C387.469 150.871 387.702 152.504 387.936 152.737C387.936 152.737 388.169 152.97 389.335 153.204C390.268 153.204 390.968 153.437 391.668 153.67C392.046 153.765 392.462 153.898 392.902 154.038C393.546 154.243 394.24 154.465 394.934 154.603C401.232 156.236 405.898 159.502 408.931 164.401C410.797 167.434 411.73 170.699 412.43 173.732C412.546 174.082 412.663 174.49 412.78 174.898C412.896 175.307 413.013 175.715 413.13 176.065C413.596 177.931 414.296 180.264 415.462 182.13C416.395 183.53 417.795 185.162 419.195 186.562Z" fill="#A88965"/>
</g>
<defs>
<clipPath id="clip0">
<rect width="500" height="500" fill="white"/>
</clipPath>
</defs>
</svg>
